<?xml version="1.0" encoding="utf-8" standalone="no"?>
<!DOCTYPE svg PUBLIC "-//W3C//DTD SVG 1.1//EN"
  "http://www.w3.org/Graphics/SVG/1.1/DTD/svg11.dtd">
<svg xmlns:xlink="http://www.w3.org/1999/xlink" width="864pt" height="288pt" viewBox="0 0 864 288" xmlns="http://www.w3.org/2000/svg" version="1.1">
 <metadata>
  <rdf:RDF xmlns:dc="http://purl.org/dc/elements/1.1/" xmlns:cc="http://creativecommons.org/ns#" xmlns:rdf="http://www.w3.org/1999/02/22-rdf-syntax-ns#">
   <cc:Work>
    <dc:type rdf:resource="http://purl.org/dc/dcmitype/StillImage"/>
    <dc:date>2024-02-27T21:28:32.949868</dc:date>
    <dc:format>image/svg+xml</dc:format>
    <dc:creator>
     <cc:Agent>
      <dc:title>Matplotlib v3.5.1, https://matplotlib.org/</dc:title>
     </cc:Agent>
    </dc:creator>
   </cc:Work>
  </rdf:RDF>
 </metadata>
 <defs>
  <style type="text/css">*{stroke-linejoin: round; stroke-linecap: butt}</style>
 </defs>
 <g id="figure_1">
  <g id="patch_1">
   <path d="M 0 288 
L 864 288 
L 864 0 
L 0 0 
z
" style="fill: #ffffff"/>
  </g>
  <g id="axes_1">
   <g id="patch_2">
    <path d="M 38.27 246.04 
L 426.6 246.04 
L 426.6 55.392 
L 38.27 55.392 
z
" style="fill: #ffffff"/>
   </g>
   <g id="patch_3">
    <path d="M 55.921364 246.04 
L 62.981909 246.04 
L 62.981909 173.41219 
L 55.921364 173.41219 
z
" clip-path="url(#pdad180404f)" style="fill: #008000; opacity: 0.7"/>
   </g>
   <g id="patch_4">
    <path d="M 62.981909 246.04 
L 70.042455 246.04 
L 70.042455 173.41219 
L 62.981909 173.41219 
z
" clip-path="url(#pdad180404f)" style="fill: #008000; opacity: 0.7"/>
   </g>
   <g id="patch_5">
    <path d="M 70.042455 246.04 
L 77.103 246.04 
L 77.103 64.470476 
L 70.042455 64.470476 
z
" clip-path="url(#pdad180404f)" style="fill: #008000; opacity: 0.7"/>
   </g>
   <g id="patch_6">
    <path d="M 77.103 246.04 
L 84.163545 246.04 
L 84.163545 246.04 
L 77.103 246.04 
z
" clip-path="url(#pdad180404f)" style="fill: #008000; opacity: 0.7"/>
   </g>
   <g id="patch_7">
    <path d="M 84.163545 246.04 
L 91.224091 246.04 
L 91.224091 209.726095 
L 84.163545 209.726095 
z
" clip-path="url(#pdad180404f)" style="fill: #008000; opacity: 0.7"/>
   </g>
   <g id="patch_8">
    <path d="M 91.224091 246.04 
L 98.284636 246.04 
L 98.284636 137.098286 
L 91.224091 137.098286 
z
" clip-path="url(#pdad180404f)" style="fill: #008000; opacity: 0.7"/>
   </g>
   <g id="patch_9">
    <path d="M 98.284636 246.04 
L 105.345182 246.04 
L 105.345182 209.726095 
L 98.284636 209.726095 
z
" clip-path="url(#pdad180404f)" style="fill: #008000; opacity: 0.7"/>
   </g>
   <g id="patch_10">
    <path d="M 105.345182 246.04 
L 112.405727 246.04 
L 112.405727 246.04 
L 105.345182 246.04 
z
" clip-path="url(#pdad180404f)" style="fill: #008000; opacity: 0.7"/>
   </g>
   <g id="patch_11">
    <path d="M 112.405727 246.04 
L 119.466273 246.04 
L 119.466273 246.04 
L 112.405727 246.04 
z
" clip-path="url(#pdad180404f)" style="fill: #008000; opacity: 0.7"/>
   </g>
   <g id="patch_12">
    <path d="M 119.466273 246.04 
L 126.526818 246.04 
L 126.526818 246.04 
L 119.466273 246.04 
z
" clip-path="url(#pdad180404f)" style="fill: #008000; opacity: 0.7"/>
   </g>
   <g id="patch_13">
    <path d="M 126.526818 246.04 
L 133.587364 246.04 
L 133.587364 246.04 
L 126.526818 246.04 
z
" clip-path="url(#pdad180404f)" style="fill: #008000; opacity: 0.7"/>
   </g>
   <g id="patch_14">
    <path d="M 133.587364 246.04 
L 140.647909 246.04 
L 140.647909 246.04 
L 133.587364 246.04 
z
" clip-path="url(#pdad180404f)" style="fill: #008000; opacity: 0.7"/>
   </g>
   <g id="patch_15">
    <path d="M 140.647909 246.04 
L 147.708455 246.04 
L 147.708455 246.04 
L 140.647909 246.04 
z
" clip-path="url(#pdad180404f)" style="fill: #008000; opacity: 0.7"/>
   </g>
   <g id="patch_16">
    <path d="M 147.708455 246.04 
L 154.769 246.04 
L 154.769 246.04 
L 147.708455 246.04 
z
" clip-path="url(#pdad180404f)" style="fill: #008000; opacity: 0.7"/>
   </g>
   <g id="patch_17">
    <path d="M 154.769 246.04 
L 161.829545 246.04 
L 161.829545 246.04 
L 154.769 246.04 
z
" clip-path="url(#pdad180404f)" style="fill: #008000; opacity: 0.7"/>
   </g>
   <g id="patch_18">
    <path d="M 161.829545 246.04 
L 168.890091 246.04 
L 168.890091 246.04 
L 161.829545 246.04 
z
" clip-path="url(#pdad180404f)" style="fill: #008000; opacity: 0.7"/>
   </g>
   <g id="patch_19">
    <path d="M 168.890091 246.04 
L 175.950636 246.04 
L 175.950636 246.04 
L 168.890091 246.04 
z
" clip-path="url(#pdad180404f)" style="fill: #008000; opacity: 0.7"/>
   </g>
   <g id="patch_20">
    <path d="M 175.950636 246.04 
L 183.011182 246.04 
L 183.011182 246.04 
L 175.950636 246.04 
z
" clip-path="url(#pdad180404f)" style="fill: #008000; opacity: 0.7"/>
   </g>
   <g id="patch_21">
    <path d="M 183.011182 246.04 
L 190.071727 246.04 
L 190.071727 209.726095 
L 183.011182 209.726095 
z
" clip-path="url(#pdad180404f)" style="fill: #008000; opacity: 0.7"/>
   </g>
   <g id="patch_22">
    <path d="M 190.071727 246.04 
L 197.132273 246.04 
L 197.132273 246.04 
L 190.071727 246.04 
z
" clip-path="url(#pdad180404f)" style="fill: #008000; opacity: 0.7"/>
   </g>
   <g id="patch_23">
    <path d="M 197.132273 246.04 
L 204.192818 246.04 
L 204.192818 246.04 
L 197.132273 246.04 
z
" clip-path="url(#pdad180404f)" style="fill: #008000; opacity: 0.7"/>
   </g>
   <g id="patch_24">
    <path d="M 204.192818 246.04 
L 211.253364 246.04 
L 211.253364 246.04 
L 204.192818 246.04 
z
" clip-path="url(#pdad180404f)" style="fill: #008000; opacity: 0.7"/>
   </g>
   <g id="patch_25">
    <path d="M 211.253364 246.04 
L 218.313909 246.04 
L 218.313909 246.04 
L 211.253364 246.04 
z
" clip-path="url(#pdad180404f)" style="fill: #008000; opacity: 0.7"/>
   </g>
   <g id="patch_26">
    <path d="M 218.313909 246.04 
L 225.374455 246.04 
L 225.374455 246.04 
L 218.313909 246.04 
z
" clip-path="url(#pdad180404f)" style="fill: #008000; opacity: 0.7"/>
   </g>
   <g id="patch_27">
    <path d="M 225.374455 246.04 
L 232.435 246.04 
L 232.435 173.41219 
L 225.374455 173.41219 
z
" clip-path="url(#pdad180404f)" style="fill: #008000; opacity: 0.7"/>
   </g>
   <g id="patch_28">
    <path d="M 232.435 246.04 
L 239.495545 246.04 
L 239.495545 209.726095 
L 232.435 209.726095 
z
" clip-path="url(#pdad180404f)" style="fill: #008000; opacity: 0.7"/>
   </g>
   <g id="patch_29">
    <path d="M 239.495545 246.04 
L 246.556091 246.04 
L 246.556091 137.098286 
L 239.495545 137.098286 
z
" clip-path="url(#pdad180404f)" style="fill: #008000; opacity: 0.7"/>
   </g>
   <g id="patch_30">
    <path d="M 246.556091 246.04 
L 253.616636 246.04 
L 253.616636 246.04 
L 246.556091 246.04 
z
" clip-path="url(#pdad180404f)" style="fill: #008000; opacity: 0.7"/>
   </g>
   <g id="patch_31">
    <path d="M 253.616636 246.04 
L 260.677182 246.04 
L 260.677182 209.726095 
L 253.616636 209.726095 
z
" clip-path="url(#pdad180404f)" style="fill: #008000; opacity: 0.7"/>
   </g>
   <g id="patch_32">
    <path d="M 260.677182 246.04 
L 267.737727 246.04 
L 267.737727 246.04 
L 260.677182 246.04 
z
" clip-path="url(#pdad180404f)" style="fill: #008000; opacity: 0.7"/>
   </g>
   <g id="patch_33">
    <path d="M 267.737727 246.04 
L 274.798273 246.04 
L 274.798273 209.726095 
L 267.737727 209.726095 
z
" clip-path="url(#pdad180404f)" style="fill: #008000; opacity: 0.7"/>
   </g>
   <g id="patch_34">
    <path d="M 274.798273 246.04 
L 281.858818 246.04 
L 281.858818 100.784381 
L 274.798273 100.784381 
z
" clip-path="url(#pdad180404f)" style="fill: #008000; opacity: 0.7"/>
   </g>
   <g id="patch_35">
    <path d="M 281.858818 246.04 
L 288.919364 246.04 
L 288.919364 246.04 
L 281.858818 246.04 
z
" clip-path="url(#pdad180404f)" style="fill: #008000; opacity: 0.7"/>
   </g>
   <g id="patch_36">
    <path d="M 288.919364 246.04 
L 295.979909 246.04 
L 295.979909 209.726095 
L 288.919364 209.726095 
z
" clip-path="url(#pdad180404f)" style="fill: #008000; opacity: 0.7"/>
   </g>
   <g id="patch_37">
    <path d="M 295.979909 246.04 
L 303.040455 246.04 
L 303.040455 209.726095 
L 295.979909 209.726095 
z
" clip-path="url(#pdad180404f)" style="fill: #008000; opacity: 0.7"/>
   </g>
   <g id="patch_38">
    <path d="M 303.040455 246.04 
L 310.101 246.04 
L 310.101 246.04 
L 303.040455 246.04 
z
" clip-path="url(#pdad180404f)" style="fill: #008000; opacity: 0.7"/>
   </g>
   <g id="patch_39">
    <path d="M 310.101 246.04 
L 317.161545 246.04 
L 317.161545 246.04 
L 310.101 246.04 
z
" clip-path="url(#pdad180404f)" style="fill: #008000; opacity: 0.7"/>
   </g>
   <g id="patch_40">
    <path d="M 317.161545 246.04 
L 324.222091 246.04 
L 324.222091 246.04 
L 317.161545 246.04 
z
" clip-path="url(#pdad180404f)" style="fill: #008000; opacity: 0.7"/>
   </g>
   <g id="patch_41">
    <path d="M 324.222091 246.04 
L 331.282636 246.04 
L 331.282636 246.04 
L 324.222091 246.04 
z
" clip-path="url(#pdad180404f)" style="fill: #008000; opacity: 0.7"/>
   </g>
   <g id="patch_42">
    <path d="M 331.282636 246.04 
L 338.343182 246.04 
L 338.343182 246.04 
L 331.282636 246.04 
z
" clip-path="url(#pdad180404f)" style="fill: #008000; opacity: 0.7"/>
   </g>
   <g id="patch_43">
    <path d="M 338.343182 246.04 
L 345.403727 246.04 
L 345.403727 246.04 
L 338.343182 246.04 
z
" clip-path="url(#pdad180404f)" style="fill: #008000; opacity: 0.7"/>
   </g>
   <g id="patch_44">
    <path d="M 345.403727 246.04 
L 352.464273 246.04 
L 352.464273 246.04 
L 345.403727 246.04 
z
" clip-path="url(#pdad180404f)" style="fill: #008000; opacity: 0.7"/>
   </g>
   <g id="patch_45">
    <path d="M 352.464273 246.04 
L 359.524818 246.04 
L 359.524818 246.04 
L 352.464273 246.04 
z
" clip-path="url(#pdad180404f)" style="fill: #008000; opacity: 0.7"/>
   </g>
   <g id="patch_46">
    <path d="M 359.524818 246.04 
L 366.585364 246.04 
L 366.585364 246.04 
L 359.524818 246.04 
z
" clip-path="url(#pdad180404f)" style="fill: #008000; opacity: 0.7"/>
   </g>
   <g id="patch_47">
    <path d="M 366.585364 246.04 
L 373.645909 246.04 
L 373.645909 209.726095 
L 366.585364 209.726095 
z
" clip-path="url(#pdad180404f)" style="fill: #008000; opacity: 0.7"/>
   </g>
   <g id="patch_48">
    <path d="M 373.645909 246.04 
L 380.706455 246.04 
L 380.706455 246.04 
L 373.645909 246.04 
z
" clip-path="url(#pdad180404f)" style="fill: #008000; opacity: 0.7"/>
   </g>
   <g id="patch_49">
    <path d="M 380.706455 246.04 
L 387.767 246.04 
L 387.767 246.04 
L 380.706455 246.04 
z
" clip-path="url(#pdad180404f)" style="fill: #008000; opacity: 0.7"/>
   </g>
   <g id="patch_50">
    <path d="M 387.767 246.04 
L 394.827545 246.04 
L 394.827545 246.04 
L 387.767 246.04 
z
" clip-path="url(#pdad180404f)" style="fill: #008000; opacity: 0.7"/>
   </g>
   <g id="patch_51">
    <path d="M 394.827545 246.04 
L 401.888091 246.04 
L 401.888091 246.04 
L 394.827545 246.04 
z
" clip-path="url(#pdad180404f)" style="fill: #008000; opacity: 0.7"/>
   </g>
   <g id="patch_52">
    <path d="M 401.888091 246.04 
L 408.948636 246.04 
L 408.948636 209.726095 
L 401.888091 209.726095 
z
" clip-path="url(#pdad180404f)" style="fill: #008000; opacity: 0.7"/>
   </g>
   <g id="matplotlib.axis_1">
    <g id="xtick_1">
     <g id="line2d_1">
      <defs>
       <path id="mdc4e1534ca" d="M 0 0 
L 0 3.5 
" style="stroke: #000000; stroke-width: 0.8"/>
      </defs>
      <g>
       <use xlink:href="#mdc4e1534ca" x="79.623412" y="246.04" style="stroke: #000000; stroke-width: 0.8"/>
      </g>
     </g>
     <g id="text_1">
      <!-- 0.2 -->
      <g transform="translate(71.67185 260.638438)scale(0.1 -0.1)">
       <defs>
        <path id="DejaVuSans-30" d="M 2034 4250 
Q 1547 4250 1301 3770 
Q 1056 3291 1056 2328 
Q 1056 1369 1301 889 
Q 1547 409 2034 409 
Q 2525 409 2770 889 
Q 3016 1369 3016 2328 
Q 3016 3291 2770 3770 
Q 2525 4250 2034 4250 
z
M 2034 4750 
Q 2819 4750 3233 4129 
Q 3647 3509 3647 2328 
Q 3647 1150 3233 529 
Q 2819 -91 2034 -91 
Q 1250 -91 836 529 
Q 422 1150 422 2328 
Q 422 3509 836 4129 
Q 1250 4750 2034 4750 
z
" transform="scale(0.015625)"/>
        <path id="DejaVuSans-2e" d="M 684 794 
L 1344 794 
L 1344 0 
L 684 0 
L 684 794 
z
" transform="scale(0.015625)"/>
        <path id="DejaVuSans-32" d="M 1228 531 
L 3431 531 
L 3431 0 
L 469 0 
L 469 531 
Q 828 903 1448 1529 
Q 2069 2156 2228 2338 
Q 2531 2678 2651 2914 
Q 2772 3150 2772 3378 
Q 2772 3750 2511 3984 
Q 2250 4219 1831 4219 
Q 1534 4219 1204 4116 
Q 875 4013 500 3803 
L 500 4441 
Q 881 4594 1212 4672 
Q 1544 4750 1819 4750 
Q 2544 4750 2975 4387 
Q 3406 4025 3406 3419 
Q 3406 3131 3298 2873 
Q 3191 2616 2906 2266 
Q 2828 2175 2409 1742 
Q 1991 1309 1228 531 
z
" transform="scale(0.015625)"/>
       </defs>
       <use xlink:href="#DejaVuSans-30"/>
       <use xlink:href="#DejaVuSans-2e" x="63.623047"/>
       <use xlink:href="#DejaVuSans-32" x="95.410156"/>
      </g>
     </g>
    </g>
    <g id="xtick_2">
     <g id="line2d_2">
      <g>
       <use xlink:href="#mdc4e1534ca" x="124.617192" y="246.04" style="stroke: #000000; stroke-width: 0.8"/>
      </g>
     </g>
     <g id="text_2">
      <!-- 0.4 -->
      <g transform="translate(116.66563 260.638438)scale(0.1 -0.1)">
       <defs>
        <path id="DejaVuSans-34" d="M 2419 4116 
L 825 1625 
L 2419 1625 
L 2419 4116 
z
M 2253 4666 
L 3047 4666 
L 3047 1625 
L 3713 1625 
L 3713 1100 
L 3047 1100 
L 3047 0 
L 2419 0 
L 2419 1100 
L 313 1100 
L 313 1709 
L 2253 4666 
z
" transform="scale(0.015625)"/>
       </defs>
       <use xlink:href="#DejaVuSans-30"/>
       <use xlink:href="#DejaVuSans-2e" x="63.623047"/>
       <use xlink:href="#DejaVuSans-34" x="95.410156"/>
      </g>
     </g>
    </g>
    <g id="xtick_3">
     <g id="line2d_3">
      <g>
       <use xlink:href="#mdc4e1534ca" x="169.610972" y="246.04" style="stroke: #000000; stroke-width: 0.8"/>
      </g>
     </g>
     <g id="text_3">
      <!-- 0.6 -->
      <g transform="translate(161.65941 260.638438)scale(0.1 -0.1)">
       <defs>
        <path id="DejaVuSans-36" d="M 2113 2584 
Q 1688 2584 1439 2293 
Q 1191 2003 1191 1497 
Q 1191 994 1439 701 
Q 1688 409 2113 409 
Q 2538 409 2786 701 
Q 3034 994 3034 1497 
Q 3034 2003 2786 2293 
Q 2538 2584 2113 2584 
z
M 3366 4563 
L 3366 3988 
Q 3128 4100 2886 4159 
Q 2644 4219 2406 4219 
Q 1781 4219 1451 3797 
Q 1122 3375 1075 2522 
Q 1259 2794 1537 2939 
Q 1816 3084 2150 3084 
Q 2853 3084 3261 2657 
Q 3669 2231 3669 1497 
Q 3669 778 3244 343 
Q 2819 -91 2113 -91 
Q 1303 -91 875 529 
Q 447 1150 447 2328 
Q 447 3434 972 4092 
Q 1497 4750 2381 4750 
Q 2619 4750 2861 4703 
Q 3103 4656 3366 4563 
z
" transform="scale(0.015625)"/>
       </defs>
       <use xlink:href="#DejaVuSans-30"/>
       <use xlink:href="#DejaVuSans-2e" x="63.623047"/>
       <use xlink:href="#DejaVuSans-36" x="95.410156"/>
      </g>
     </g>
    </g>
    <g id="xtick_4">
     <g id="line2d_4">
      <g>
       <use xlink:href="#mdc4e1534ca" x="214.604752" y="246.04" style="stroke: #000000; stroke-width: 0.8"/>
      </g>
     </g>
     <g id="text_4">
      <!-- 0.8 -->
      <g transform="translate(206.65319 260.638438)scale(0.1 -0.1)">
       <defs>
        <path id="DejaVuSans-38" d="M 2034 2216 
Q 1584 2216 1326 1975 
Q 1069 1734 1069 1313 
Q 1069 891 1326 650 
Q 1584 409 2034 409 
Q 2484 409 2743 651 
Q 3003 894 3003 1313 
Q 3003 1734 2745 1975 
Q 2488 2216 2034 2216 
z
M 1403 2484 
Q 997 2584 770 2862 
Q 544 3141 544 3541 
Q 544 4100 942 4425 
Q 1341 4750 2034 4750 
Q 2731 4750 3128 4425 
Q 3525 4100 3525 3541 
Q 3525 3141 3298 2862 
Q 3072 2584 2669 2484 
Q 3125 2378 3379 2068 
Q 3634 1759 3634 1313 
Q 3634 634 3220 271 
Q 2806 -91 2034 -91 
Q 1263 -91 848 271 
Q 434 634 434 1313 
Q 434 1759 690 2068 
Q 947 2378 1403 2484 
z
M 1172 3481 
Q 1172 3119 1398 2916 
Q 1625 2713 2034 2713 
Q 2441 2713 2670 2916 
Q 2900 3119 2900 3481 
Q 2900 3844 2670 4047 
Q 2441 4250 2034 4250 
Q 1625 4250 1398 4047 
Q 1172 3844 1172 3481 
z
" transform="scale(0.015625)"/>
       </defs>
       <use xlink:href="#DejaVuSans-30"/>
       <use xlink:href="#DejaVuSans-2e" x="63.623047"/>
       <use xlink:href="#DejaVuSans-38" x="95.410156"/>
      </g>
     </g>
    </g>
    <g id="xtick_5">
     <g id="line2d_5">
      <g>
       <use xlink:href="#mdc4e1534ca" x="259.598532" y="246.04" style="stroke: #000000; stroke-width: 0.8"/>
      </g>
     </g>
     <g id="text_5">
      <!-- 1.0 -->
      <g transform="translate(251.64697 260.638438)scale(0.1 -0.1)">
       <defs>
        <path id="DejaVuSans-31" d="M 794 531 
L 1825 531 
L 1825 4091 
L 703 3866 
L 703 4441 
L 1819 4666 
L 2450 4666 
L 2450 531 
L 3481 531 
L 3481 0 
L 794 0 
L 794 531 
z
" transform="scale(0.015625)"/>
       </defs>
       <use xlink:href="#DejaVuSans-31"/>
       <use xlink:href="#DejaVuSans-2e" x="63.623047"/>
       <use xlink:href="#DejaVuSans-30" x="95.410156"/>
      </g>
     </g>
    </g>
    <g id="xtick_6">
     <g id="line2d_6">
      <g>
       <use xlink:href="#mdc4e1534ca" x="304.592313" y="246.04" style="stroke: #000000; stroke-width: 0.8"/>
      </g>
     </g>
     <g id="text_6">
      <!-- 1.2 -->
      <g transform="translate(296.64075 260.638438)scale(0.1 -0.1)">
       <use xlink:href="#DejaVuSans-31"/>
       <use xlink:href="#DejaVuSans-2e" x="63.623047"/>
       <use xlink:href="#DejaVuSans-32" x="95.410156"/>
      </g>
     </g>
    </g>
    <g id="xtick_7">
     <g id="line2d_7">
      <g>
       <use xlink:href="#mdc4e1534ca" x="349.586093" y="246.04" style="stroke: #000000; stroke-width: 0.8"/>
      </g>
     </g>
     <g id="text_7">
      <!-- 1.4 -->
      <g transform="translate(341.63453 260.638438)scale(0.1 -0.1)">
       <use xlink:href="#DejaVuSans-31"/>
       <use xlink:href="#DejaVuSans-2e" x="63.623047"/>
       <use xlink:href="#DejaVuSans-34" x="95.410156"/>
      </g>
     </g>
    </g>
    <g id="xtick_8">
     <g id="line2d_8">
      <g>
       <use xlink:href="#mdc4e1534ca" x="394.579873" y="246.04" style="stroke: #000000; stroke-width: 0.8"/>
      </g>
     </g>
     <g id="text_8">
      <!-- 1.6 -->
      <g transform="translate(386.62831 260.638438)scale(0.1 -0.1)">
       <use xlink:href="#DejaVuSans-31"/>
       <use xlink:href="#DejaVuSans-2e" x="63.623047"/>
       <use xlink:href="#DejaVuSans-36" x="95.410156"/>
      </g>
     </g>
    </g>
    <g id="text_9">
     <!-- time(ms) -->
     <g transform="translate(209.762344 274.316562)scale(0.1 -0.1)">
      <defs>
       <path id="DejaVuSans-74" d="M 1172 4494 
L 1172 3500 
L 2356 3500 
L 2356 3053 
L 1172 3053 
L 1172 1153 
Q 1172 725 1289 603 
Q 1406 481 1766 481 
L 2356 481 
L 2356 0 
L 1766 0 
Q 1100 0 847 248 
Q 594 497 594 1153 
L 594 3053 
L 172 3053 
L 172 3500 
L 594 3500 
L 594 4494 
L 1172 4494 
z
" transform="scale(0.015625)"/>
       <path id="DejaVuSans-69" d="M 603 3500 
L 1178 3500 
L 1178 0 
L 603 0 
L 603 3500 
z
M 603 4863 
L 1178 4863 
L 1178 4134 
L 603 4134 
L 603 4863 
z
" transform="scale(0.015625)"/>
       <path id="DejaVuSans-6d" d="M 3328 2828 
Q 3544 3216 3844 3400 
Q 4144 3584 4550 3584 
Q 5097 3584 5394 3201 
Q 5691 2819 5691 2113 
L 5691 0 
L 5113 0 
L 5113 2094 
Q 5113 2597 4934 2840 
Q 4756 3084 4391 3084 
Q 3944 3084 3684 2787 
Q 3425 2491 3425 1978 
L 3425 0 
L 2847 0 
L 2847 2094 
Q 2847 2600 2669 2842 
Q 2491 3084 2119 3084 
Q 1678 3084 1418 2786 
Q 1159 2488 1159 1978 
L 1159 0 
L 581 0 
L 581 3500 
L 1159 3500 
L 1159 2956 
Q 1356 3278 1631 3431 
Q 1906 3584 2284 3584 
Q 2666 3584 2933 3390 
Q 3200 3197 3328 2828 
z
" transform="scale(0.015625)"/>
       <path id="DejaVuSans-65" d="M 3597 1894 
L 3597 1613 
L 953 1613 
Q 991 1019 1311 708 
Q 1631 397 2203 397 
Q 2534 397 2845 478 
Q 3156 559 3463 722 
L 3463 178 
Q 3153 47 2828 -22 
Q 2503 -91 2169 -91 
Q 1331 -91 842 396 
Q 353 884 353 1716 
Q 353 2575 817 3079 
Q 1281 3584 2069 3584 
Q 2775 3584 3186 3129 
Q 3597 2675 3597 1894 
z
M 3022 2063 
Q 3016 2534 2758 2815 
Q 2500 3097 2075 3097 
Q 1594 3097 1305 2825 
Q 1016 2553 972 2059 
L 3022 2063 
z
" transform="scale(0.015625)"/>
       <path id="DejaVuSans-28" d="M 1984 4856 
Q 1566 4138 1362 3434 
Q 1159 2731 1159 2009 
Q 1159 1288 1364 580 
Q 1569 -128 1984 -844 
L 1484 -844 
Q 1016 -109 783 600 
Q 550 1309 550 2009 
Q 550 2706 781 3412 
Q 1013 4119 1484 4856 
L 1984 4856 
z
" transform="scale(0.015625)"/>
       <path id="DejaVuSans-73" d="M 2834 3397 
L 2834 2853 
Q 2591 2978 2328 3040 
Q 2066 3103 1784 3103 
Q 1356 3103 1142 2972 
Q 928 2841 928 2578 
Q 928 2378 1081 2264 
Q 1234 2150 1697 2047 
L 1894 2003 
Q 2506 1872 2764 1633 
Q 3022 1394 3022 966 
Q 3022 478 2636 193 
Q 2250 -91 1575 -91 
Q 1294 -91 989 -36 
Q 684 19 347 128 
L 347 722 
Q 666 556 975 473 
Q 1284 391 1588 391 
Q 1994 391 2212 530 
Q 2431 669 2431 922 
Q 2431 1156 2273 1281 
Q 2116 1406 1581 1522 
L 1381 1569 
Q 847 1681 609 1914 
Q 372 2147 372 2553 
Q 372 3047 722 3315 
Q 1072 3584 1716 3584 
Q 2034 3584 2315 3537 
Q 2597 3491 2834 3397 
z
" transform="scale(0.015625)"/>
       <path id="DejaVuSans-29" d="M 513 4856 
L 1013 4856 
Q 1481 4119 1714 3412 
Q 1947 2706 1947 2009 
Q 1947 1309 1714 600 
Q 1481 -109 1013 -844 
L 513 -844 
Q 928 -128 1133 580 
Q 1338 1288 1338 2009 
Q 1338 2731 1133 3434 
Q 928 4138 513 4856 
z
" transform="scale(0.015625)"/>
      </defs>
      <use xlink:href="#DejaVuSans-74"/>
      <use xlink:href="#DejaVuSans-69" x="39.208984"/>
      <use xlink:href="#DejaVuSans-6d" x="66.992188"/>
      <use xlink:href="#DejaVuSans-65" x="164.404297"/>
      <use xlink:href="#DejaVuSans-28" x="225.927734"/>
      <use xlink:href="#DejaVuSans-6d" x="264.941406"/>
      <use xlink:href="#DejaVuSans-73" x="362.353516"/>
      <use xlink:href="#DejaVuSans-29" x="414.453125"/>
     </g>
    </g>
   </g>
   <g id="matplotlib.axis_2">
    <g id="ytick_1">
     <g id="line2d_9">
      <defs>
       <path id="mddcc9da0fe" d="M 0 0 
L -3.5 0 
" style="stroke: #000000; stroke-width: 0.8"/>
      </defs>
      <g>
       <use xlink:href="#mddcc9da0fe" x="38.27" y="246.04" style="stroke: #000000; stroke-width: 0.8"/>
      </g>
     </g>
     <g id="text_10">
      <!-- 0 -->
      <g transform="translate(24.9075 249.839219)scale(0.1 -0.1)">
       <use xlink:href="#DejaVuSans-30"/>
      </g>
     </g>
    </g>
    <g id="ytick_2">
     <g id="line2d_10">
      <g>
       <use xlink:href="#mddcc9da0fe" x="38.27" y="209.726095" style="stroke: #000000; stroke-width: 0.8"/>
      </g>
     </g>
     <g id="text_11">
      <!-- 1 -->
      <g transform="translate(24.9075 213.525314)scale(0.1 -0.1)">
       <use xlink:href="#DejaVuSans-31"/>
      </g>
     </g>
    </g>
    <g id="ytick_3">
     <g id="line2d_11">
      <g>
       <use xlink:href="#mddcc9da0fe" x="38.27" y="173.41219" style="stroke: #000000; stroke-width: 0.8"/>
      </g>
     </g>
     <g id="text_12">
      <!-- 2 -->
      <g transform="translate(24.9075 177.211409)scale(0.1 -0.1)">
       <use xlink:href="#DejaVuSans-32"/>
      </g>
     </g>
    </g>
    <g id="ytick_4">
     <g id="line2d_12">
      <g>
       <use xlink:href="#mddcc9da0fe" x="38.27" y="137.098286" style="stroke: #000000; stroke-width: 0.8"/>
      </g>
     </g>
     <g id="text_13">
      <!-- 3 -->
      <g transform="translate(24.9075 140.897504)scale(0.1 -0.1)">
       <defs>
        <path id="DejaVuSans-33" d="M 2597 2516 
Q 3050 2419 3304 2112 
Q 3559 1806 3559 1356 
Q 3559 666 3084 287 
Q 2609 -91 1734 -91 
Q 1441 -91 1130 -33 
Q 819 25 488 141 
L 488 750 
Q 750 597 1062 519 
Q 1375 441 1716 441 
Q 2309 441 2620 675 
Q 2931 909 2931 1356 
Q 2931 1769 2642 2001 
Q 2353 2234 1838 2234 
L 1294 2234 
L 1294 2753 
L 1863 2753 
Q 2328 2753 2575 2939 
Q 2822 3125 2822 3475 
Q 2822 3834 2567 4026 
Q 2313 4219 1838 4219 
Q 1578 4219 1281 4162 
Q 984 4106 628 3988 
L 628 4550 
Q 988 4650 1302 4700 
Q 1616 4750 1894 4750 
Q 2613 4750 3031 4423 
Q 3450 4097 3450 3541 
Q 3450 3153 3228 2886 
Q 3006 2619 2597 2516 
z
" transform="scale(0.015625)"/>
       </defs>
       <use xlink:href="#DejaVuSans-33"/>
      </g>
     </g>
    </g>
    <g id="ytick_5">
     <g id="line2d_13">
      <g>
       <use xlink:href="#mddcc9da0fe" x="38.27" y="100.784381" style="stroke: #000000; stroke-width: 0.8"/>
      </g>
     </g>
     <g id="text_14">
      <!-- 4 -->
      <g transform="translate(24.9075 104.5836)scale(0.1 -0.1)">
       <use xlink:href="#DejaVuSans-34"/>
      </g>
     </g>
    </g>
    <g id="ytick_6">
     <g id="line2d_14">
      <g>
       <use xlink:href="#mddcc9da0fe" x="38.27" y="64.470476" style="stroke: #000000; stroke-width: 0.8"/>
      </g>
     </g>
     <g id="text_15">
      <!-- 5 -->
      <g transform="translate(24.9075 68.269695)scale(0.1 -0.1)">
       <defs>
        <path id="DejaVuSans-35" d="M 691 4666 
L 3169 4666 
L 3169 4134 
L 1269 4134 
L 1269 2991 
Q 1406 3038 1543 3061 
Q 1681 3084 1819 3084 
Q 2600 3084 3056 2656 
Q 3513 2228 3513 1497 
Q 3513 744 3044 326 
Q 2575 -91 1722 -91 
Q 1428 -91 1123 -41 
Q 819 9 494 109 
L 494 744 
Q 775 591 1075 516 
Q 1375 441 1709 441 
Q 2250 441 2565 725 
Q 2881 1009 2881 1497 
Q 2881 1984 2565 2268 
Q 2250 2553 1709 2553 
Q 1456 2553 1204 2497 
Q 953 2441 691 2322 
L 691 4666 
z
" transform="scale(0.015625)"/>
       </defs>
       <use xlink:href="#DejaVuSans-35"/>
      </g>
     </g>
    </g>
    <g id="text_16">
     <!-- frequency -->
     <g transform="translate(18.827813 175.792563)rotate(-90)scale(0.1 -0.1)">
      <defs>
       <path id="DejaVuSans-66" d="M 2375 4863 
L 2375 4384 
L 1825 4384 
Q 1516 4384 1395 4259 
Q 1275 4134 1275 3809 
L 1275 3500 
L 2222 3500 
L 2222 3053 
L 1275 3053 
L 1275 0 
L 697 0 
L 697 3053 
L 147 3053 
L 147 3500 
L 697 3500 
L 697 3744 
Q 697 4328 969 4595 
Q 1241 4863 1831 4863 
L 2375 4863 
z
" transform="scale(0.015625)"/>
       <path id="DejaVuSans-72" d="M 2631 2963 
Q 2534 3019 2420 3045 
Q 2306 3072 2169 3072 
Q 1681 3072 1420 2755 
Q 1159 2438 1159 1844 
L 1159 0 
L 581 0 
L 581 3500 
L 1159 3500 
L 1159 2956 
Q 1341 3275 1631 3429 
Q 1922 3584 2338 3584 
Q 2397 3584 2469 3576 
Q 2541 3569 2628 3553 
L 2631 2963 
z
" transform="scale(0.015625)"/>
       <path id="DejaVuSans-71" d="M 947 1747 
Q 947 1113 1208 752 
Q 1469 391 1925 391 
Q 2381 391 2643 752 
Q 2906 1113 2906 1747 
Q 2906 2381 2643 2742 
Q 2381 3103 1925 3103 
Q 1469 3103 1208 2742 
Q 947 2381 947 1747 
z
M 2906 525 
Q 2725 213 2448 61 
Q 2172 -91 1784 -91 
Q 1150 -91 751 415 
Q 353 922 353 1747 
Q 353 2572 751 3078 
Q 1150 3584 1784 3584 
Q 2172 3584 2448 3432 
Q 2725 3281 2906 2969 
L 2906 3500 
L 3481 3500 
L 3481 -1331 
L 2906 -1331 
L 2906 525 
z
" transform="scale(0.015625)"/>
       <path id="DejaVuSans-75" d="M 544 1381 
L 544 3500 
L 1119 3500 
L 1119 1403 
Q 1119 906 1312 657 
Q 1506 409 1894 409 
Q 2359 409 2629 706 
Q 2900 1003 2900 1516 
L 2900 3500 
L 3475 3500 
L 3475 0 
L 2900 0 
L 2900 538 
Q 2691 219 2414 64 
Q 2138 -91 1772 -91 
Q 1169 -91 856 284 
Q 544 659 544 1381 
z
M 1991 3584 
L 1991 3584 
z
" transform="scale(0.015625)"/>
       <path id="DejaVuSans-6e" d="M 3513 2113 
L 3513 0 
L 2938 0 
L 2938 2094 
Q 2938 2591 2744 2837 
Q 2550 3084 2163 3084 
Q 1697 3084 1428 2787 
Q 1159 2491 1159 1978 
L 1159 0 
L 581 0 
L 581 3500 
L 1159 3500 
L 1159 2956 
Q 1366 3272 1645 3428 
Q 1925 3584 2291 3584 
Q 2894 3584 3203 3211 
Q 3513 2838 3513 2113 
z
" transform="scale(0.015625)"/>
       <path id="DejaVuSans-63" d="M 3122 3366 
L 3122 2828 
Q 2878 2963 2633 3030 
Q 2388 3097 2138 3097 
Q 1578 3097 1268 2742 
Q 959 2388 959 1747 
Q 959 1106 1268 751 
Q 1578 397 2138 397 
Q 2388 397 2633 464 
Q 2878 531 3122 666 
L 3122 134 
Q 2881 22 2623 -34 
Q 2366 -91 2075 -91 
Q 1284 -91 818 406 
Q 353 903 353 1747 
Q 353 2603 823 3093 
Q 1294 3584 2113 3584 
Q 2378 3584 2631 3529 
Q 2884 3475 3122 3366 
z
" transform="scale(0.015625)"/>
       <path id="DejaVuSans-79" d="M 2059 -325 
Q 1816 -950 1584 -1140 
Q 1353 -1331 966 -1331 
L 506 -1331 
L 506 -850 
L 844 -850 
Q 1081 -850 1212 -737 
Q 1344 -625 1503 -206 
L 1606 56 
L 191 3500 
L 800 3500 
L 1894 763 
L 2988 3500 
L 3597 3500 
L 2059 -325 
z
" transform="scale(0.015625)"/>
      </defs>
      <use xlink:href="#DejaVuSans-66"/>
      <use xlink:href="#DejaVuSans-72" x="35.205078"/>
      <use xlink:href="#DejaVuSans-65" x="74.068359"/>
      <use xlink:href="#DejaVuSans-71" x="135.591797"/>
      <use xlink:href="#DejaVuSans-75" x="199.068359"/>
      <use xlink:href="#DejaVuSans-65" x="262.447266"/>
      <use xlink:href="#DejaVuSans-6e" x="323.970703"/>
      <use xlink:href="#DejaVuSans-63" x="387.349609"/>
      <use xlink:href="#DejaVuSans-79" x="442.330078"/>
     </g>
    </g>
   </g>
   <g id="line2d_15">
    <path d="M 55.921364 231.469539 
L 62.981909 230.263665 
L 70.042455 229.033989 
L 77.103 227.790025 
L 84.163545 226.542202 
L 91.224091 225.301738 
L 98.284636 224.08049 
L 105.345182 222.890777 
L 112.405727 221.745181 
L 119.466273 220.65633 
L 126.526818 219.636673 
L 133.587364 218.698246 
L 140.647909 217.852433 
L 147.708455 217.109743 
L 154.769 216.479588 
L 161.829545 215.970088 
L 168.890091 215.587895 
L 175.950636 215.338049 
L 183.011182 215.223869 
L 190.071727 215.246877 
L 197.132273 215.406765 
L 204.192818 215.701405 
L 211.253364 216.126891 
L 218.313909 216.677628 
L 225.374455 217.346455 
L 232.435 218.124798 
L 239.495545 219.002856 
L 246.556091 219.9698 
L 253.616636 221.014004 
L 260.677182 222.123265 
L 267.737727 223.28505 
L 274.798273 224.48672 
L 281.858818 225.715758 
L 288.919364 226.95998 
L 295.979909 228.207724 
L 303.040455 229.44802 
L 310.101 230.670733 
L 317.161545 231.866681 
L 324.222091 233.027718 
L 331.282636 234.146796 
L 338.343182 235.217994 
L 345.403727 236.236523 
L 352.464273 237.198703 
L 359.524818 238.101923 
L 366.585364 238.944579 
L 373.645909 239.726001 
L 380.706455 240.446363 
L 387.767 241.106586 
L 394.827545 241.70824 
L 401.888091 242.253441 
L 408.948636 242.744749 
" clip-path="url(#pdad180404f)" style="fill: none; stroke-dasharray: 3.7,1.6; stroke-dashoffset: 0; stroke: #ff0000"/>
   </g>
   <g id="patch_53">
    <path d="M 38.27 246.04 
L 38.27 55.392 
" style="fill: none; stroke: #000000; stroke-width: 0.8; stroke-linejoin: miter; stroke-linecap: square"/>
   </g>
   <g id="patch_54">
    <path d="M 426.6 246.04 
L 426.6 55.392 
" style="fill: none; stroke: #000000; stroke-width: 0.8; stroke-linejoin: miter; stroke-linecap: square"/>
   </g>
   <g id="patch_55">
    <path d="M 38.27 246.04 
L 426.6 246.04 
" style="fill: none; stroke: #000000; stroke-width: 0.8; stroke-linejoin: miter; stroke-linecap: square"/>
   </g>
   <g id="patch_56">
    <path d="M 38.27 55.392 
L 426.6 55.392 
" style="fill: none; stroke: #000000; stroke-width: 0.8; stroke-linejoin: miter; stroke-linecap: square"/>
   </g>
   <g id="text_17">
    <!-- conn: started — stopped -->
    <g transform="translate(158.375313 22.490625)scale(0.12 -0.12)">
     <defs>
      <path id="DejaVuSans-6f" d="M 1959 3097 
Q 1497 3097 1228 2736 
Q 959 2375 959 1747 
Q 959 1119 1226 758 
Q 1494 397 1959 397 
Q 2419 397 2687 759 
Q 2956 1122 2956 1747 
Q 2956 2369 2687 2733 
Q 2419 3097 1959 3097 
z
M 1959 3584 
Q 2709 3584 3137 3096 
Q 3566 2609 3566 1747 
Q 3566 888 3137 398 
Q 2709 -91 1959 -91 
Q 1206 -91 779 398 
Q 353 888 353 1747 
Q 353 2609 779 3096 
Q 1206 3584 1959 3584 
z
" transform="scale(0.015625)"/>
      <path id="DejaVuSans-3a" d="M 750 794 
L 1409 794 
L 1409 0 
L 750 0 
L 750 794 
z
M 750 3309 
L 1409 3309 
L 1409 2516 
L 750 2516 
L 750 3309 
z
" transform="scale(0.015625)"/>
      <path id="DejaVuSans-20" transform="scale(0.015625)"/>
      <path id="DejaVuSans-61" d="M 2194 1759 
Q 1497 1759 1228 1600 
Q 959 1441 959 1056 
Q 959 750 1161 570 
Q 1363 391 1709 391 
Q 2188 391 2477 730 
Q 2766 1069 2766 1631 
L 2766 1759 
L 2194 1759 
z
M 3341 1997 
L 3341 0 
L 2766 0 
L 2766 531 
Q 2569 213 2275 61 
Q 1981 -91 1556 -91 
Q 1019 -91 701 211 
Q 384 513 384 1019 
Q 384 1609 779 1909 
Q 1175 2209 1959 2209 
L 2766 2209 
L 2766 2266 
Q 2766 2663 2505 2880 
Q 2244 3097 1772 3097 
Q 1472 3097 1187 3025 
Q 903 2953 641 2809 
L 641 3341 
Q 956 3463 1253 3523 
Q 1550 3584 1831 3584 
Q 2591 3584 2966 3190 
Q 3341 2797 3341 1997 
z
" transform="scale(0.015625)"/>
      <path id="DejaVuSans-64" d="M 2906 2969 
L 2906 4863 
L 3481 4863 
L 3481 0 
L 2906 0 
L 2906 525 
Q 2725 213 2448 61 
Q 2172 -91 1784 -91 
Q 1150 -91 751 415 
Q 353 922 353 1747 
Q 353 2572 751 3078 
Q 1150 3584 1784 3584 
Q 2172 3584 2448 3432 
Q 2725 3281 2906 2969 
z
M 947 1747 
Q 947 1113 1208 752 
Q 1469 391 1925 391 
Q 2381 391 2643 752 
Q 2906 1113 2906 1747 
Q 2906 2381 2643 2742 
Q 2381 3103 1925 3103 
Q 1469 3103 1208 2742 
Q 947 2381 947 1747 
z
" transform="scale(0.015625)"/>
      <path id="DejaVuSans-2014" d="M 313 1978 
L 6088 1978 
L 6088 1528 
L 313 1528 
L 313 1978 
z
" transform="scale(0.015625)"/>
      <path id="DejaVuSans-70" d="M 1159 525 
L 1159 -1331 
L 581 -1331 
L 581 3500 
L 1159 3500 
L 1159 2969 
Q 1341 3281 1617 3432 
Q 1894 3584 2278 3584 
Q 2916 3584 3314 3078 
Q 3713 2572 3713 1747 
Q 3713 922 3314 415 
Q 2916 -91 2278 -91 
Q 1894 -91 1617 61 
Q 1341 213 1159 525 
z
M 3116 1747 
Q 3116 2381 2855 2742 
Q 2594 3103 2138 3103 
Q 1681 3103 1420 2742 
Q 1159 2381 1159 1747 
Q 1159 1113 1420 752 
Q 1681 391 2138 391 
Q 2594 391 2855 752 
Q 3116 1113 3116 1747 
z
" transform="scale(0.015625)"/>
     </defs>
     <use xlink:href="#DejaVuSans-63"/>
     <use xlink:href="#DejaVuSans-6f" x="54.980469"/>
     <use xlink:href="#DejaVuSans-6e" x="116.162109"/>
     <use xlink:href="#DejaVuSans-6e" x="179.541016"/>
     <use xlink:href="#DejaVuSans-3a" x="242.919922"/>
     <use xlink:href="#DejaVuSans-20" x="276.611328"/>
     <use xlink:href="#DejaVuSans-73" x="308.398438"/>
     <use xlink:href="#DejaVuSans-74" x="360.498047"/>
     <use xlink:href="#DejaVuSans-61" x="399.707031"/>
     <use xlink:href="#DejaVuSans-72" x="460.986328"/>
     <use xlink:href="#DejaVuSans-74" x="502.099609"/>
     <use xlink:href="#DejaVuSans-65" x="541.308594"/>
     <use xlink:href="#DejaVuSans-64" x="602.832031"/>
     <use xlink:href="#DejaVuSans-20" x="666.308594"/>
     <use xlink:href="#DejaVuSans-2014" x="698.095703"/>
     <use xlink:href="#DejaVuSans-20" x="798.095703"/>
     <use xlink:href="#DejaVuSans-73" x="829.882812"/>
     <use xlink:href="#DejaVuSans-74" x="881.982422"/>
     <use xlink:href="#DejaVuSans-6f" x="921.191406"/>
     <use xlink:href="#DejaVuSans-70" x="982.373047"/>
     <use xlink:href="#DejaVuSans-70" x="1045.849609"/>
     <use xlink:href="#DejaVuSans-65" x="1109.326172"/>
     <use xlink:href="#DejaVuSans-64" x="1170.849609"/>
    </g>
    <!-- $i = [0.09, 1.66], \mu=0.67,\ \sigma=0.47$ -->
    <g transform="translate(131.755 35.93025)scale(0.12 -0.12)">
     <defs>
      <path id="DejaVuSans-Oblique-69" d="M 1172 4863 
L 1747 4863 
L 1606 4134 
L 1031 4134 
L 1172 4863 
z
M 909 3500 
L 1484 3500 
L 800 0 
L 225 0 
L 909 3500 
z
" transform="scale(0.015625)"/>
      <path id="DejaVuSans-3d" d="M 678 2906 
L 4684 2906 
L 4684 2381 
L 678 2381 
L 678 2906 
z
M 678 1631 
L 4684 1631 
L 4684 1100 
L 678 1100 
L 678 1631 
z
" transform="scale(0.015625)"/>
      <path id="DejaVuSans-5b" d="M 550 4863 
L 1875 4863 
L 1875 4416 
L 1125 4416 
L 1125 -397 
L 1875 -397 
L 1875 -844 
L 550 -844 
L 550 4863 
z
" transform="scale(0.015625)"/>
      <path id="DejaVuSans-39" d="M 703 97 
L 703 672 
Q 941 559 1184 500 
Q 1428 441 1663 441 
Q 2288 441 2617 861 
Q 2947 1281 2994 2138 
Q 2813 1869 2534 1725 
Q 2256 1581 1919 1581 
Q 1219 1581 811 2004 
Q 403 2428 403 3163 
Q 403 3881 828 4315 
Q 1253 4750 1959 4750 
Q 2769 4750 3195 4129 
Q 3622 3509 3622 2328 
Q 3622 1225 3098 567 
Q 2575 -91 1691 -91 
Q 1453 -91 1209 -44 
Q 966 3 703 97 
z
M 1959 2075 
Q 2384 2075 2632 2365 
Q 2881 2656 2881 3163 
Q 2881 3666 2632 3958 
Q 2384 4250 1959 4250 
Q 1534 4250 1286 3958 
Q 1038 3666 1038 3163 
Q 1038 2656 1286 2365 
Q 1534 2075 1959 2075 
z
" transform="scale(0.015625)"/>
      <path id="DejaVuSans-2c" d="M 750 794 
L 1409 794 
L 1409 256 
L 897 -744 
L 494 -744 
L 750 256 
L 750 794 
z
" transform="scale(0.015625)"/>
      <path id="DejaVuSans-5d" d="M 1947 4863 
L 1947 -844 
L 622 -844 
L 622 -397 
L 1369 -397 
L 1369 4416 
L 622 4416 
L 622 4863 
L 1947 4863 
z
" transform="scale(0.015625)"/>
      <path id="DejaVuSans-Oblique-3bc" d="M -84 -1331 
L 856 3500 
L 1434 3500 
L 1009 1322 
Q 997 1256 987 1175 
Q 978 1094 978 1013 
Q 978 722 1161 565 
Q 1344 409 1684 409 
Q 2147 409 2431 671 
Q 2716 934 2816 1459 
L 3213 3500 
L 3788 3500 
L 3266 809 
Q 3253 750 3248 706 
Q 3244 663 3244 628 
Q 3244 531 3283 486 
Q 3322 441 3406 441 
Q 3438 441 3492 456 
Q 3547 472 3647 513 
L 3559 50 
Q 3422 -19 3297 -55 
Q 3172 -91 3053 -91 
Q 2847 -91 2730 40 
Q 2613 172 2613 403 
Q 2438 153 2195 31 
Q 1953 -91 1625 -91 
Q 1334 -91 1117 43 
Q 900 178 831 397 
L 494 -1331 
L -84 -1331 
z
" transform="scale(0.015625)"/>
      <path id="DejaVuSans-37" d="M 525 4666 
L 3525 4666 
L 3525 4397 
L 1831 0 
L 1172 0 
L 2766 4134 
L 525 4134 
L 525 4666 
z
" transform="scale(0.015625)"/>
      <path id="DejaVuSans-Oblique-3c3" d="M 2219 3044 
Q 1744 3044 1422 2700 
Q 1081 2341 969 1747 
Q 844 1119 1044 756 
Q 1241 397 1706 397 
Q 2166 397 2503 759 
Q 2844 1122 2966 1747 
Q 3075 2319 2881 2700 
Q 2700 3044 2219 3044 
z
M 2309 3503 
L 4219 3500 
L 4106 2925 
L 3463 2925 
Q 3706 2438 3575 1747 
Q 3406 888 2884 400 
Q 2359 -91 1609 -91 
Q 856 -91 525 400 
Q 194 888 363 1747 
Q 528 2609 1050 3097 
Q 1484 3503 2309 3503 
z
" transform="scale(0.015625)"/>
     </defs>
     <use xlink:href="#DejaVuSans-Oblique-69" transform="translate(0 0.015625)"/>
     <use xlink:href="#DejaVuSans-3d" transform="translate(47.265625 0.015625)"/>
     <use xlink:href="#DejaVuSans-5b" transform="translate(150.537109 0.015625)"/>
     <use xlink:href="#DejaVuSans-30" transform="translate(189.550781 0.015625)"/>
     <use xlink:href="#DejaVuSans-2e" transform="translate(253.173828 0.015625)"/>
     <use xlink:href="#DejaVuSans-30" transform="translate(284.960938 0.015625)"/>
     <use xlink:href="#DejaVuSans-39" transform="translate(348.583984 0.015625)"/>
     <use xlink:href="#DejaVuSans-2c" transform="translate(412.207031 0.015625)"/>
     <use xlink:href="#DejaVuSans-31" transform="translate(463.476562 0.015625)"/>
     <use xlink:href="#DejaVuSans-2e" transform="translate(527.099609 0.015625)"/>
     <use xlink:href="#DejaVuSans-36" transform="translate(558.886719 0.015625)"/>
     <use xlink:href="#DejaVuSans-36" transform="translate(622.509766 0.015625)"/>
     <use xlink:href="#DejaVuSans-5d" transform="translate(686.132812 0.015625)"/>
     <use xlink:href="#DejaVuSans-2c" transform="translate(725.146484 0.015625)"/>
     <use xlink:href="#DejaVuSans-Oblique-3bc" transform="translate(776.416016 0.015625)"/>
     <use xlink:href="#DejaVuSans-3d" transform="translate(859.521484 0.015625)"/>
     <use xlink:href="#DejaVuSans-30" transform="translate(962.792969 0.015625)"/>
     <use xlink:href="#DejaVuSans-2e" transform="translate(1026.416016 0.015625)"/>
     <use xlink:href="#DejaVuSans-36" transform="translate(1058.203125 0.015625)"/>
     <use xlink:href="#DejaVuSans-37" transform="translate(1121.826172 0.015625)"/>
     <use xlink:href="#DejaVuSans-2c" transform="translate(1185.449219 0.015625)"/>
     <use xlink:href="#DejaVuSans-Oblique-3c3" transform="translate(1269.189128 0.015625)"/>
     <use xlink:href="#DejaVuSans-3d" transform="translate(1352.050457 0.015625)"/>
     <use xlink:href="#DejaVuSans-30" transform="translate(1455.321941 0.015625)"/>
     <use xlink:href="#DejaVuSans-2e" transform="translate(1518.944988 0.015625)"/>
     <use xlink:href="#DejaVuSans-34" transform="translate(1550.732097 0.015625)"/>
     <use xlink:href="#DejaVuSans-37" transform="translate(1614.355144 0.015625)"/>
    </g>
    <!-- $n = 31, nr = 31, nr/n = 1.0$ -->
    <g transform="translate(157.195 49.392)scale(0.12 -0.12)">
     <defs>
      <path id="DejaVuSans-Oblique-6e" d="M 3566 2113 
L 3156 0 
L 2578 0 
L 2988 2091 
Q 3016 2238 3031 2350 
Q 3047 2463 3047 2528 
Q 3047 2791 2881 2937 
Q 2716 3084 2419 3084 
Q 1956 3084 1622 2776 
Q 1288 2469 1184 1941 
L 800 0 
L 225 0 
L 903 3500 
L 1478 3500 
L 1363 2950 
Q 1603 3253 1940 3418 
Q 2278 3584 2650 3584 
Q 3113 3584 3367 3334 
Q 3622 3084 3622 2631 
Q 3622 2519 3608 2391 
Q 3594 2263 3566 2113 
z
" transform="scale(0.015625)"/>
      <path id="DejaVuSans-Oblique-72" d="M 2853 2969 
Q 2766 3016 2653 3041 
Q 2541 3066 2413 3066 
Q 1953 3066 1609 2717 
Q 1266 2369 1153 1784 
L 800 0 
L 225 0 
L 909 3500 
L 1484 3500 
L 1375 2956 
Q 1603 3259 1920 3421 
Q 2238 3584 2597 3584 
Q 2691 3584 2781 3573 
Q 2872 3563 2963 3538 
L 2853 2969 
z
" transform="scale(0.015625)"/>
      <path id="DejaVuSans-2f" d="M 1625 4666 
L 2156 4666 
L 531 -594 
L 0 -594 
L 1625 4666 
z
" transform="scale(0.015625)"/>
     </defs>
     <use xlink:href="#DejaVuSans-Oblique-6e" transform="translate(0 0.78125)"/>
     <use xlink:href="#DejaVuSans-3d" transform="translate(82.861328 0.78125)"/>
     <use xlink:href="#DejaVuSans-33" transform="translate(186.132812 0.78125)"/>
     <use xlink:href="#DejaVuSans-31" transform="translate(249.755859 0.78125)"/>
     <use xlink:href="#DejaVuSans-2c" transform="translate(313.378906 0.78125)"/>
     <use xlink:href="#DejaVuSans-Oblique-6e" transform="translate(364.648438 0.78125)"/>
     <use xlink:href="#DejaVuSans-Oblique-72" transform="translate(428.027344 0.78125)"/>
     <use xlink:href="#DejaVuSans-3d" transform="translate(488.623047 0.78125)"/>
     <use xlink:href="#DejaVuSans-33" transform="translate(591.894531 0.78125)"/>
     <use xlink:href="#DejaVuSans-31" transform="translate(655.517578 0.78125)"/>
     <use xlink:href="#DejaVuSans-2c" transform="translate(719.140625 0.78125)"/>
     <use xlink:href="#DejaVuSans-Oblique-6e" transform="translate(770.410156 0.78125)"/>
     <use xlink:href="#DejaVuSans-Oblique-72" transform="translate(833.789062 0.78125)"/>
     <use xlink:href="#DejaVuSans-2f" transform="translate(874.902344 0.78125)"/>
     <use xlink:href="#DejaVuSans-Oblique-6e" transform="translate(908.59375 0.78125)"/>
     <use xlink:href="#DejaVuSans-3d" transform="translate(991.455078 0.78125)"/>
     <use xlink:href="#DejaVuSans-31" transform="translate(1094.726562 0.78125)"/>
     <use xlink:href="#DejaVuSans-2e" transform="translate(1158.349609 0.78125)"/>
     <use xlink:href="#DejaVuSans-30" transform="translate(1190.136719 0.78125)"/>
    </g>
   </g>
  </g>
  <g id="axes_2">
   <g id="patch_57">
    <path d="M 464.87 246.04 
L 853.2 246.04 
L 853.2 55.392 
L 464.87 55.392 
z
" style="fill: #ffffff"/>
   </g>
   <g id="patch_58">
    <path d="M 482.521364 246.04 
L 489.581909 246.04 
L 489.581909 173.41219 
L 482.521364 173.41219 
z
" clip-path="url(#p947f3a1c88)" style="fill: #008000; opacity: 0.7"/>
   </g>
   <g id="patch_59">
    <path d="M 489.581909 246.04 
L 496.642455 246.04 
L 496.642455 173.41219 
L 489.581909 173.41219 
z
" clip-path="url(#p947f3a1c88)" style="fill: #008000; opacity: 0.7"/>
   </g>
   <g id="patch_60">
    <path d="M 496.642455 246.04 
L 503.703 246.04 
L 503.703 64.470476 
L 496.642455 64.470476 
z
" clip-path="url(#p947f3a1c88)" style="fill: #008000; opacity: 0.7"/>
   </g>
   <g id="patch_61">
    <path d="M 503.703 246.04 
L 510.763545 246.04 
L 510.763545 209.726095 
L 503.703 209.726095 
z
" clip-path="url(#p947f3a1c88)" style="fill: #008000; opacity: 0.7"/>
   </g>
   <g id="patch_62">
    <path d="M 510.763545 246.04 
L 517.824091 246.04 
L 517.824091 246.04 
L 510.763545 246.04 
z
" clip-path="url(#p947f3a1c88)" style="fill: #008000; opacity: 0.7"/>
   </g>
   <g id="patch_63">
    <path d="M 517.824091 246.04 
L 524.884636 246.04 
L 524.884636 137.098286 
L 517.824091 137.098286 
z
" clip-path="url(#p947f3a1c88)" style="fill: #008000; opacity: 0.7"/>
   </g>
   <g id="patch_64">
    <path d="M 524.884636 246.04 
L 531.945182 246.04 
L 531.945182 209.726095 
L 524.884636 209.726095 
z
" clip-path="url(#p947f3a1c88)" style="fill: #008000; opacity: 0.7"/>
   </g>
   <g id="patch_65">
    <path d="M 531.945182 246.04 
L 539.005727 246.04 
L 539.005727 246.04 
L 531.945182 246.04 
z
" clip-path="url(#p947f3a1c88)" style="fill: #008000; opacity: 0.7"/>
   </g>
   <g id="patch_66">
    <path d="M 539.005727 246.04 
L 546.066273 246.04 
L 546.066273 246.04 
L 539.005727 246.04 
z
" clip-path="url(#p947f3a1c88)" style="fill: #008000; opacity: 0.7"/>
   </g>
   <g id="patch_67">
    <path d="M 546.066273 246.04 
L 553.126818 246.04 
L 553.126818 246.04 
L 546.066273 246.04 
z
" clip-path="url(#p947f3a1c88)" style="fill: #008000; opacity: 0.7"/>
   </g>
   <g id="patch_68">
    <path d="M 553.126818 246.04 
L 560.187364 246.04 
L 560.187364 246.04 
L 553.126818 246.04 
z
" clip-path="url(#p947f3a1c88)" style="fill: #008000; opacity: 0.7"/>
   </g>
   <g id="patch_69">
    <path d="M 560.187364 246.04 
L 567.247909 246.04 
L 567.247909 246.04 
L 560.187364 246.04 
z
" clip-path="url(#p947f3a1c88)" style="fill: #008000; opacity: 0.7"/>
   </g>
   <g id="patch_70">
    <path d="M 567.247909 246.04 
L 574.308455 246.04 
L 574.308455 246.04 
L 567.247909 246.04 
z
" clip-path="url(#p947f3a1c88)" style="fill: #008000; opacity: 0.7"/>
   </g>
   <g id="patch_71">
    <path d="M 574.308455 246.04 
L 581.369 246.04 
L 581.369 246.04 
L 574.308455 246.04 
z
" clip-path="url(#p947f3a1c88)" style="fill: #008000; opacity: 0.7"/>
   </g>
   <g id="patch_72">
    <path d="M 581.369 246.04 
L 588.429545 246.04 
L 588.429545 246.04 
L 581.369 246.04 
z
" clip-path="url(#p947f3a1c88)" style="fill: #008000; opacity: 0.7"/>
   </g>
   <g id="patch_73">
    <path d="M 588.429545 246.04 
L 595.490091 246.04 
L 595.490091 246.04 
L 588.429545 246.04 
z
" clip-path="url(#p947f3a1c88)" style="fill: #008000; opacity: 0.7"/>
   </g>
   <g id="patch_74">
    <path d="M 595.490091 246.04 
L 602.550636 246.04 
L 602.550636 246.04 
L 595.490091 246.04 
z
" clip-path="url(#p947f3a1c88)" style="fill: #008000; opacity: 0.7"/>
   </g>
   <g id="patch_75">
    <path d="M 602.550636 246.04 
L 609.611182 246.04 
L 609.611182 209.726095 
L 602.550636 209.726095 
z
" clip-path="url(#p947f3a1c88)" style="fill: #008000; opacity: 0.7"/>
   </g>
   <g id="patch_76">
    <path d="M 609.611182 246.04 
L 616.671727 246.04 
L 616.671727 246.04 
L 609.611182 246.04 
z
" clip-path="url(#p947f3a1c88)" style="fill: #008000; opacity: 0.7"/>
   </g>
   <g id="patch_77">
    <path d="M 616.671727 246.04 
L 623.732273 246.04 
L 623.732273 246.04 
L 616.671727 246.04 
z
" clip-path="url(#p947f3a1c88)" style="fill: #008000; opacity: 0.7"/>
   </g>
   <g id="patch_78">
    <path d="M 623.732273 246.04 
L 630.792818 246.04 
L 630.792818 246.04 
L 623.732273 246.04 
z
" clip-path="url(#p947f3a1c88)" style="fill: #008000; opacity: 0.7"/>
   </g>
   <g id="patch_79">
    <path d="M 630.792818 246.04 
L 637.853364 246.04 
L 637.853364 246.04 
L 630.792818 246.04 
z
" clip-path="url(#p947f3a1c88)" style="fill: #008000; opacity: 0.7"/>
   </g>
   <g id="patch_80">
    <path d="M 637.853364 246.04 
L 644.913909 246.04 
L 644.913909 246.04 
L 637.853364 246.04 
z
" clip-path="url(#p947f3a1c88)" style="fill: #008000; opacity: 0.7"/>
   </g>
   <g id="patch_81">
    <path d="M 644.913909 246.04 
L 651.974455 246.04 
L 651.974455 173.41219 
L 644.913909 173.41219 
z
" clip-path="url(#p947f3a1c88)" style="fill: #008000; opacity: 0.7"/>
   </g>
   <g id="patch_82">
    <path d="M 651.974455 246.04 
L 659.035 246.04 
L 659.035 173.41219 
L 651.974455 173.41219 
z
" clip-path="url(#p947f3a1c88)" style="fill: #008000; opacity: 0.7"/>
   </g>
   <g id="patch_83">
    <path d="M 659.035 246.04 
L 666.095545 246.04 
L 666.095545 246.04 
L 659.035 246.04 
z
" clip-path="url(#p947f3a1c88)" style="fill: #008000; opacity: 0.7"/>
   </g>
   <g id="patch_84">
    <path d="M 666.095545 246.04 
L 673.156091 246.04 
L 673.156091 173.41219 
L 666.095545 173.41219 
z
" clip-path="url(#p947f3a1c88)" style="fill: #008000; opacity: 0.7"/>
   </g>
   <g id="patch_85">
    <path d="M 673.156091 246.04 
L 680.216636 246.04 
L 680.216636 209.726095 
L 673.156091 209.726095 
z
" clip-path="url(#p947f3a1c88)" style="fill: #008000; opacity: 0.7"/>
   </g>
   <g id="patch_86">
    <path d="M 680.216636 246.04 
L 687.277182 246.04 
L 687.277182 246.04 
L 680.216636 246.04 
z
" clip-path="url(#p947f3a1c88)" style="fill: #008000; opacity: 0.7"/>
   </g>
   <g id="patch_87">
    <path d="M 687.277182 246.04 
L 694.337727 246.04 
L 694.337727 209.726095 
L 687.277182 209.726095 
z
" clip-path="url(#p947f3a1c88)" style="fill: #008000; opacity: 0.7"/>
   </g>
   <g id="patch_88">
    <path d="M 694.337727 246.04 
L 701.398273 246.04 
L 701.398273 137.098286 
L 694.337727 137.098286 
z
" clip-path="url(#p947f3a1c88)" style="fill: #008000; opacity: 0.7"/>
   </g>
   <g id="patch_89">
    <path d="M 701.398273 246.04 
L 708.458818 246.04 
L 708.458818 209.726095 
L 701.398273 209.726095 
z
" clip-path="url(#p947f3a1c88)" style="fill: #008000; opacity: 0.7"/>
   </g>
   <g id="patch_90">
    <path d="M 708.458818 246.04 
L 715.519364 246.04 
L 715.519364 209.726095 
L 708.458818 209.726095 
z
" clip-path="url(#p947f3a1c88)" style="fill: #008000; opacity: 0.7"/>
   </g>
   <g id="patch_91">
    <path d="M 715.519364 246.04 
L 722.579909 246.04 
L 722.579909 209.726095 
L 715.519364 209.726095 
z
" clip-path="url(#p947f3a1c88)" style="fill: #008000; opacity: 0.7"/>
   </g>
   <g id="patch_92">
    <path d="M 722.579909 246.04 
L 729.640455 246.04 
L 729.640455 246.04 
L 722.579909 246.04 
z
" clip-path="url(#p947f3a1c88)" style="fill: #008000; opacity: 0.7"/>
   </g>
   <g id="patch_93">
    <path d="M 729.640455 246.04 
L 736.701 246.04 
L 736.701 246.04 
L 729.640455 246.04 
z
" clip-path="url(#p947f3a1c88)" style="fill: #008000; opacity: 0.7"/>
   </g>
   <g id="patch_94">
    <path d="M 736.701 246.04 
L 743.761545 246.04 
L 743.761545 246.04 
L 736.701 246.04 
z
" clip-path="url(#p947f3a1c88)" style="fill: #008000; opacity: 0.7"/>
   </g>
   <g id="patch_95">
    <path d="M 743.761545 246.04 
L 750.822091 246.04 
L 750.822091 246.04 
L 743.761545 246.04 
z
" clip-path="url(#p947f3a1c88)" style="fill: #008000; opacity: 0.7"/>
   </g>
   <g id="patch_96">
    <path d="M 750.822091 246.04 
L 757.882636 246.04 
L 757.882636 246.04 
L 750.822091 246.04 
z
" clip-path="url(#p947f3a1c88)" style="fill: #008000; opacity: 0.7"/>
   </g>
   <g id="patch_97">
    <path d="M 757.882636 246.04 
L 764.943182 246.04 
L 764.943182 246.04 
L 757.882636 246.04 
z
" clip-path="url(#p947f3a1c88)" style="fill: #008000; opacity: 0.7"/>
   </g>
   <g id="patch_98">
    <path d="M 764.943182 246.04 
L 772.003727 246.04 
L 772.003727 246.04 
L 764.943182 246.04 
z
" clip-path="url(#p947f3a1c88)" style="fill: #008000; opacity: 0.7"/>
   </g>
   <g id="patch_99">
    <path d="M 772.003727 246.04 
L 779.064273 246.04 
L 779.064273 246.04 
L 772.003727 246.04 
z
" clip-path="url(#p947f3a1c88)" style="fill: #008000; opacity: 0.7"/>
   </g>
   <g id="patch_100">
    <path d="M 779.064273 246.04 
L 786.124818 246.04 
L 786.124818 209.726095 
L 779.064273 209.726095 
z
" clip-path="url(#p947f3a1c88)" style="fill: #008000; opacity: 0.7"/>
   </g>
   <g id="patch_101">
    <path d="M 786.124818 246.04 
L 793.185364 246.04 
L 793.185364 246.04 
L 786.124818 246.04 
z
" clip-path="url(#p947f3a1c88)" style="fill: #008000; opacity: 0.7"/>
   </g>
   <g id="patch_102">
    <path d="M 793.185364 246.04 
L 800.245909 246.04 
L 800.245909 246.04 
L 793.185364 246.04 
z
" clip-path="url(#p947f3a1c88)" style="fill: #008000; opacity: 0.7"/>
   </g>
   <g id="patch_103">
    <path d="M 800.245909 246.04 
L 807.306455 246.04 
L 807.306455 246.04 
L 800.245909 246.04 
z
" clip-path="url(#p947f3a1c88)" style="fill: #008000; opacity: 0.7"/>
   </g>
   <g id="patch_104">
    <path d="M 807.306455 246.04 
L 814.367 246.04 
L 814.367 246.04 
L 807.306455 246.04 
z
" clip-path="url(#p947f3a1c88)" style="fill: #008000; opacity: 0.7"/>
   </g>
   <g id="patch_105">
    <path d="M 814.367 246.04 
L 821.427545 246.04 
L 821.427545 246.04 
L 814.367 246.04 
z
" clip-path="url(#p947f3a1c88)" style="fill: #008000; opacity: 0.7"/>
   </g>
   <g id="patch_106">
    <path d="M 821.427545 246.04 
L 828.488091 246.04 
L 828.488091 246.04 
L 821.427545 246.04 
z
" clip-path="url(#p947f3a1c88)" style="fill: #008000; opacity: 0.7"/>
   </g>
   <g id="patch_107">
    <path d="M 828.488091 246.04 
L 835.548636 246.04 
L 835.548636 209.726095 
L 828.488091 209.726095 
z
" clip-path="url(#p947f3a1c88)" style="fill: #008000; opacity: 0.7"/>
   </g>
   <g id="matplotlib.axis_3">
    <g id="xtick_9">
     <g id="line2d_16">
      <g>
       <use xlink:href="#mdc4e1534ca" x="505.586929" y="246.04" style="stroke: #000000; stroke-width: 0.8"/>
      </g>
     </g>
     <g id="text_18">
      <!-- 0.2 -->
      <g transform="translate(497.635367 260.638438)scale(0.1 -0.1)">
       <use xlink:href="#DejaVuSans-30"/>
       <use xlink:href="#DejaVuSans-2e" x="63.623047"/>
       <use xlink:href="#DejaVuSans-32" x="95.410156"/>
      </g>
     </g>
    </g>
    <g id="xtick_10">
     <g id="line2d_17">
      <g>
       <use xlink:href="#mdc4e1534ca" x="549.32224" y="246.04" style="stroke: #000000; stroke-width: 0.8"/>
      </g>
     </g>
     <g id="text_19">
      <!-- 0.4 -->
      <g transform="translate(541.370677 260.638438)scale(0.1 -0.1)">
       <use xlink:href="#DejaVuSans-30"/>
       <use xlink:href="#DejaVuSans-2e" x="63.623047"/>
       <use xlink:href="#DejaVuSans-34" x="95.410156"/>
      </g>
     </g>
    </g>
    <g id="xtick_11">
     <g id="line2d_18">
      <g>
       <use xlink:href="#mdc4e1534ca" x="593.05755" y="246.04" style="stroke: #000000; stroke-width: 0.8"/>
      </g>
     </g>
     <g id="text_20">
      <!-- 0.6 -->
      <g transform="translate(585.105988 260.638438)scale(0.1 -0.1)">
       <use xlink:href="#DejaVuSans-30"/>
       <use xlink:href="#DejaVuSans-2e" x="63.623047"/>
       <use xlink:href="#DejaVuSans-36" x="95.410156"/>
      </g>
     </g>
    </g>
    <g id="xtick_12">
     <g id="line2d_19">
      <g>
       <use xlink:href="#mdc4e1534ca" x="636.792861" y="246.04" style="stroke: #000000; stroke-width: 0.8"/>
      </g>
     </g>
     <g id="text_21">
      <!-- 0.8 -->
      <g transform="translate(628.841299 260.638438)scale(0.1 -0.1)">
       <use xlink:href="#DejaVuSans-30"/>
       <use xlink:href="#DejaVuSans-2e" x="63.623047"/>
       <use xlink:href="#DejaVuSans-38" x="95.410156"/>
      </g>
     </g>
    </g>
    <g id="xtick_13">
     <g id="line2d_20">
      <g>
       <use xlink:href="#mdc4e1534ca" x="680.528172" y="246.04" style="stroke: #000000; stroke-width: 0.8"/>
      </g>
     </g>
     <g id="text_22">
      <!-- 1.0 -->
      <g transform="translate(672.576609 260.638438)scale(0.1 -0.1)">
       <use xlink:href="#DejaVuSans-31"/>
       <use xlink:href="#DejaVuSans-2e" x="63.623047"/>
       <use xlink:href="#DejaVuSans-30" x="95.410156"/>
      </g>
     </g>
    </g>
    <g id="xtick_14">
     <g id="line2d_21">
      <g>
       <use xlink:href="#mdc4e1534ca" x="724.263482" y="246.04" style="stroke: #000000; stroke-width: 0.8"/>
      </g>
     </g>
     <g id="text_23">
      <!-- 1.2 -->
      <g transform="translate(716.31192 260.638438)scale(0.1 -0.1)">
       <use xlink:href="#DejaVuSans-31"/>
       <use xlink:href="#DejaVuSans-2e" x="63.623047"/>
       <use xlink:href="#DejaVuSans-32" x="95.410156"/>
      </g>
     </g>
    </g>
    <g id="xtick_15">
     <g id="line2d_22">
      <g>
       <use xlink:href="#mdc4e1534ca" x="767.998793" y="246.04" style="stroke: #000000; stroke-width: 0.8"/>
      </g>
     </g>
     <g id="text_24">
      <!-- 1.4 -->
      <g transform="translate(760.047231 260.638438)scale(0.1 -0.1)">
       <use xlink:href="#DejaVuSans-31"/>
       <use xlink:href="#DejaVuSans-2e" x="63.623047"/>
       <use xlink:href="#DejaVuSans-34" x="95.410156"/>
      </g>
     </g>
    </g>
    <g id="xtick_16">
     <g id="line2d_23">
      <g>
       <use xlink:href="#mdc4e1534ca" x="811.734104" y="246.04" style="stroke: #000000; stroke-width: 0.8"/>
      </g>
     </g>
     <g id="text_25">
      <!-- 1.6 -->
      <g transform="translate(803.782541 260.638438)scale(0.1 -0.1)">
       <use xlink:href="#DejaVuSans-31"/>
       <use xlink:href="#DejaVuSans-2e" x="63.623047"/>
       <use xlink:href="#DejaVuSans-36" x="95.410156"/>
      </g>
     </g>
    </g>
    <g id="text_26">
     <!-- time(ms) -->
     <g transform="translate(636.362344 274.316562)scale(0.1 -0.1)">
      <use xlink:href="#DejaVuSans-74"/>
      <use xlink:href="#DejaVuSans-69" x="39.208984"/>
      <use xlink:href="#DejaVuSans-6d" x="66.992188"/>
      <use xlink:href="#DejaVuSans-65" x="164.404297"/>
      <use xlink:href="#DejaVuSans-28" x="225.927734"/>
      <use xlink:href="#DejaVuSans-6d" x="264.941406"/>
      <use xlink:href="#DejaVuSans-73" x="362.353516"/>
      <use xlink:href="#DejaVuSans-29" x="414.453125"/>
     </g>
    </g>
   </g>
   <g id="matplotlib.axis_4">
    <g id="ytick_7">
     <g id="line2d_24">
      <g>
       <use xlink:href="#mddcc9da0fe" x="464.87" y="246.04" style="stroke: #000000; stroke-width: 0.8"/>
      </g>
     </g>
     <g id="text_27">
      <!-- 0 -->
      <g transform="translate(451.5075 249.839219)scale(0.1 -0.1)">
       <use xlink:href="#DejaVuSans-30"/>
      </g>
     </g>
    </g>
    <g id="ytick_8">
     <g id="line2d_25">
      <g>
       <use xlink:href="#mddcc9da0fe" x="464.87" y="209.726095" style="stroke: #000000; stroke-width: 0.8"/>
      </g>
     </g>
     <g id="text_28">
      <!-- 1 -->
      <g transform="translate(451.5075 213.525314)scale(0.1 -0.1)">
       <use xlink:href="#DejaVuSans-31"/>
      </g>
     </g>
    </g>
    <g id="ytick_9">
     <g id="line2d_26">
      <g>
       <use xlink:href="#mddcc9da0fe" x="464.87" y="173.41219" style="stroke: #000000; stroke-width: 0.8"/>
      </g>
     </g>
     <g id="text_29">
      <!-- 2 -->
      <g transform="translate(451.5075 177.211409)scale(0.1 -0.1)">
       <use xlink:href="#DejaVuSans-32"/>
      </g>
     </g>
    </g>
    <g id="ytick_10">
     <g id="line2d_27">
      <g>
       <use xlink:href="#mddcc9da0fe" x="464.87" y="137.098286" style="stroke: #000000; stroke-width: 0.8"/>
      </g>
     </g>
     <g id="text_30">
      <!-- 3 -->
      <g transform="translate(451.5075 140.897504)scale(0.1 -0.1)">
       <use xlink:href="#DejaVuSans-33"/>
      </g>
     </g>
    </g>
    <g id="ytick_11">
     <g id="line2d_28">
      <g>
       <use xlink:href="#mddcc9da0fe" x="464.87" y="100.784381" style="stroke: #000000; stroke-width: 0.8"/>
      </g>
     </g>
     <g id="text_31">
      <!-- 4 -->
      <g transform="translate(451.5075 104.5836)scale(0.1 -0.1)">
       <use xlink:href="#DejaVuSans-34"/>
      </g>
     </g>
    </g>
    <g id="ytick_12">
     <g id="line2d_29">
      <g>
       <use xlink:href="#mddcc9da0fe" x="464.87" y="64.470476" style="stroke: #000000; stroke-width: 0.8"/>
      </g>
     </g>
     <g id="text_32">
      <!-- 5 -->
      <g transform="translate(451.5075 68.269695)scale(0.1 -0.1)">
       <use xlink:href="#DejaVuSans-35"/>
      </g>
     </g>
    </g>
    <g id="text_33">
     <!-- frequency -->
     <g transform="translate(445.427813 175.792563)rotate(-90)scale(0.1 -0.1)">
      <use xlink:href="#DejaVuSans-66"/>
      <use xlink:href="#DejaVuSans-72" x="35.205078"/>
      <use xlink:href="#DejaVuSans-65" x="74.068359"/>
      <use xlink:href="#DejaVuSans-71" x="135.591797"/>
      <use xlink:href="#DejaVuSans-75" x="199.068359"/>
      <use xlink:href="#DejaVuSans-65" x="262.447266"/>
      <use xlink:href="#DejaVuSans-6e" x="323.970703"/>
      <use xlink:href="#DejaVuSans-63" x="387.349609"/>
      <use xlink:href="#DejaVuSans-79" x="442.330078"/>
     </g>
    </g>
   </g>
   <g id="line2d_30">
    <path d="M 482.521364 231.474131 
L 489.581909 230.233274 
L 496.642455 228.96747 
L 503.703 227.687117 
L 510.763545 226.403632 
L 517.824091 225.129306 
L 524.884636 223.877121 
L 531.945182 222.660547 
L 539.005727 221.493309 
L 546.066273 220.389136 
L 553.126818 219.361495 
L 560.187364 218.423323 
L 567.247909 217.586756 
L 574.308455 216.862869 
L 581.369 216.26143 
L 588.429545 215.790686 
L 595.490091 215.457171 
L 602.550636 215.265556 
L 609.611182 215.218538 
L 616.671727 215.316784 
L 623.732273 215.558905 
L 630.792818 215.941497 
L 637.853364 216.459217 
L 644.913909 217.104908 
L 651.974455 217.869762 
L 659.035 218.743523 
L 666.095545 219.714712 
L 673.156091 220.770881 
L 680.216636 221.898875 
L 687.277182 223.085103 
L 694.337727 224.315808 
L 701.398273 225.577327 
L 708.458818 226.856338 
L 715.519364 228.140078 
L 722.579909 229.416549 
L 729.640455 230.674678 
L 736.701 231.904454 
L 743.761545 233.09703 
L 750.822091 234.244788 
L 757.882636 235.341374 
L 764.943182 236.3817 
L 772.003727 237.361917 
L 779.064273 238.279363 
L 786.124818 239.132492 
L 793.185364 239.920783 
L 800.245909 240.644636 
L 807.306455 241.305261 
L 814.367 241.904559 
L 821.427545 242.445007 
L 828.488091 242.92954 
L 835.548636 243.361438 
" clip-path="url(#p947f3a1c88)" style="fill: none; stroke-dasharray: 3.7,1.6; stroke-dashoffset: 0; stroke: #ff0000"/>
   </g>
   <g id="patch_108">
    <path d="M 464.87 246.04 
L 464.87 55.392 
" style="fill: none; stroke: #000000; stroke-width: 0.8; stroke-linejoin: miter; stroke-linecap: square"/>
   </g>
   <g id="patch_109">
    <path d="M 853.2 246.04 
L 853.2 55.392 
" style="fill: none; stroke: #000000; stroke-width: 0.8; stroke-linejoin: miter; stroke-linecap: square"/>
   </g>
   <g id="patch_110">
    <path d="M 464.87 246.04 
L 853.2 246.04 
" style="fill: none; stroke: #000000; stroke-width: 0.8; stroke-linejoin: miter; stroke-linecap: square"/>
   </g>
   <g id="patch_111">
    <path d="M 464.87 55.392 
L 853.2 55.392 
" style="fill: none; stroke: #000000; stroke-width: 0.8; stroke-linejoin: miter; stroke-linecap: square"/>
   </g>
   <g id="text_34">
    <!-- gw: inited — closed -->
    <g transform="translate(600.654063 22.490625)scale(0.12 -0.12)">
     <defs>
      <path id="DejaVuSans-67" d="M 2906 1791 
Q 2906 2416 2648 2759 
Q 2391 3103 1925 3103 
Q 1463 3103 1205 2759 
Q 947 2416 947 1791 
Q 947 1169 1205 825 
Q 1463 481 1925 481 
Q 2391 481 2648 825 
Q 2906 1169 2906 1791 
z
M 3481 434 
Q 3481 -459 3084 -895 
Q 2688 -1331 1869 -1331 
Q 1566 -1331 1297 -1286 
Q 1028 -1241 775 -1147 
L 775 -588 
Q 1028 -725 1275 -790 
Q 1522 -856 1778 -856 
Q 2344 -856 2625 -561 
Q 2906 -266 2906 331 
L 2906 616 
Q 2728 306 2450 153 
Q 2172 0 1784 0 
Q 1141 0 747 490 
Q 353 981 353 1791 
Q 353 2603 747 3093 
Q 1141 3584 1784 3584 
Q 2172 3584 2450 3431 
Q 2728 3278 2906 2969 
L 2906 3500 
L 3481 3500 
L 3481 434 
z
" transform="scale(0.015625)"/>
      <path id="DejaVuSans-77" d="M 269 3500 
L 844 3500 
L 1563 769 
L 2278 3500 
L 2956 3500 
L 3675 769 
L 4391 3500 
L 4966 3500 
L 4050 0 
L 3372 0 
L 2619 2869 
L 1863 0 
L 1184 0 
L 269 3500 
z
" transform="scale(0.015625)"/>
      <path id="DejaVuSans-6c" d="M 603 4863 
L 1178 4863 
L 1178 0 
L 603 0 
L 603 4863 
z
" transform="scale(0.015625)"/>
     </defs>
     <use xlink:href="#DejaVuSans-67"/>
     <use xlink:href="#DejaVuSans-77" x="63.476562"/>
     <use xlink:href="#DejaVuSans-3a" x="139.763672"/>
     <use xlink:href="#DejaVuSans-20" x="173.455078"/>
     <use xlink:href="#DejaVuSans-69" x="205.242188"/>
     <use xlink:href="#DejaVuSans-6e" x="233.025391"/>
     <use xlink:href="#DejaVuSans-69" x="296.404297"/>
     <use xlink:href="#DejaVuSans-74" x="324.1875"/>
     <use xlink:href="#DejaVuSans-65" x="363.396484"/>
     <use xlink:href="#DejaVuSans-64" x="424.919922"/>
     <use xlink:href="#DejaVuSans-20" x="488.396484"/>
     <use xlink:href="#DejaVuSans-2014" x="520.183594"/>
     <use xlink:href="#DejaVuSans-20" x="620.183594"/>
     <use xlink:href="#DejaVuSans-63" x="651.970703"/>
     <use xlink:href="#DejaVuSans-6c" x="706.951172"/>
     <use xlink:href="#DejaVuSans-6f" x="734.734375"/>
     <use xlink:href="#DejaVuSans-73" x="795.916016"/>
     <use xlink:href="#DejaVuSans-65" x="848.015625"/>
     <use xlink:href="#DejaVuSans-64" x="909.539062"/>
    </g>
    <!-- $i = [0.09, 1.71], \mu=0.67,\ \sigma=0.47$ -->
    <g transform="translate(558.775 35.93025)scale(0.12 -0.12)">
     <use xlink:href="#DejaVuSans-Oblique-69" transform="translate(0 0.015625)"/>
     <use xlink:href="#DejaVuSans-3d" transform="translate(47.265625 0.015625)"/>
     <use xlink:href="#DejaVuSans-5b" transform="translate(150.537109 0.015625)"/>
     <use xlink:href="#DejaVuSans-30" transform="translate(189.550781 0.015625)"/>
     <use xlink:href="#DejaVuSans-2e" transform="translate(253.173828 0.015625)"/>
     <use xlink:href="#DejaVuSans-30" transform="translate(284.960938 0.015625)"/>
     <use xlink:href="#DejaVuSans-39" transform="translate(348.583984 0.015625)"/>
     <use xlink:href="#DejaVuSans-2c" transform="translate(412.207031 0.015625)"/>
     <use xlink:href="#DejaVuSans-31" transform="translate(463.476562 0.015625)"/>
     <use xlink:href="#DejaVuSans-2e" transform="translate(527.099609 0.015625)"/>
     <use xlink:href="#DejaVuSans-37" transform="translate(551.136719 0.015625)"/>
     <use xlink:href="#DejaVuSans-31" transform="translate(614.759766 0.015625)"/>
     <use xlink:href="#DejaVuSans-5d" transform="translate(678.382812 0.015625)"/>
     <use xlink:href="#DejaVuSans-2c" transform="translate(717.396484 0.015625)"/>
     <use xlink:href="#DejaVuSans-Oblique-3bc" transform="translate(768.666016 0.015625)"/>
     <use xlink:href="#DejaVuSans-3d" transform="translate(851.771484 0.015625)"/>
     <use xlink:href="#DejaVuSans-30" transform="translate(955.042969 0.015625)"/>
     <use xlink:href="#DejaVuSans-2e" transform="translate(1018.666016 0.015625)"/>
     <use xlink:href="#DejaVuSans-36" transform="translate(1050.453125 0.015625)"/>
     <use xlink:href="#DejaVuSans-37" transform="translate(1114.076172 0.015625)"/>
     <use xlink:href="#DejaVuSans-2c" transform="translate(1177.699219 0.015625)"/>
     <use xlink:href="#DejaVuSans-Oblique-3c3" transform="translate(1261.439128 0.015625)"/>
     <use xlink:href="#DejaVuSans-3d" transform="translate(1344.300457 0.015625)"/>
     <use xlink:href="#DejaVuSans-30" transform="translate(1447.571941 0.015625)"/>
     <use xlink:href="#DejaVuSans-2e" transform="translate(1511.194988 0.015625)"/>
     <use xlink:href="#DejaVuSans-34" transform="translate(1542.982097 0.015625)"/>
     <use xlink:href="#DejaVuSans-37" transform="translate(1606.605144 0.015625)"/>
    </g>
    <!-- $n = 31, nr = 31, nr/n = 1.0$ -->
    <g transform="translate(583.795 49.392)scale(0.12 -0.12)">
     <use xlink:href="#DejaVuSans-Oblique-6e" transform="translate(0 0.78125)"/>
     <use xlink:href="#DejaVuSans-3d" transform="translate(82.861328 0.78125)"/>
     <use xlink:href="#DejaVuSans-33" transform="translate(186.132812 0.78125)"/>
     <use xlink:href="#DejaVuSans-31" transform="translate(249.755859 0.78125)"/>
     <use xlink:href="#DejaVuSans-2c" transform="translate(313.378906 0.78125)"/>
     <use xlink:href="#DejaVuSans-Oblique-6e" transform="translate(364.648438 0.78125)"/>
     <use xlink:href="#DejaVuSans-Oblique-72" transform="translate(428.027344 0.78125)"/>
     <use xlink:href="#DejaVuSans-3d" transform="translate(488.623047 0.78125)"/>
     <use xlink:href="#DejaVuSans-33" transform="translate(591.894531 0.78125)"/>
     <use xlink:href="#DejaVuSans-31" transform="translate(655.517578 0.78125)"/>
     <use xlink:href="#DejaVuSans-2c" transform="translate(719.140625 0.78125)"/>
     <use xlink:href="#DejaVuSans-Oblique-6e" transform="translate(770.410156 0.78125)"/>
     <use xlink:href="#DejaVuSans-Oblique-72" transform="translate(833.789062 0.78125)"/>
     <use xlink:href="#DejaVuSans-2f" transform="translate(874.902344 0.78125)"/>
     <use xlink:href="#DejaVuSans-Oblique-6e" transform="translate(908.59375 0.78125)"/>
     <use xlink:href="#DejaVuSans-3d" transform="translate(991.455078 0.78125)"/>
     <use xlink:href="#DejaVuSans-31" transform="translate(1094.726562 0.78125)"/>
     <use xlink:href="#DejaVuSans-2e" transform="translate(1158.349609 0.78125)"/>
     <use xlink:href="#DejaVuSans-30" transform="translate(1190.136719 0.78125)"/>
    </g>
   </g>
  </g>
 </g>
 <defs>
  <clipPath id="pdad180404f">
   <rect x="38.27" y="55.392" width="388.33" height="190.648"/>
  </clipPath>
  <clipPath id="p947f3a1c88">
   <rect x="464.87" y="55.392" width="388.33" height="190.648"/>
  </clipPath>
 </defs>
</svg>
